<svg width="37" height="37" viewBox="0 0 37 37" fill="none" xmlns="http://www.w3.org/2000/svg">
<path d="M4.625 18.5698C4.625 17.0435 4.85625 15.6175 5.31875 14.2886C5.7639 13.0041 6.45161 11.8171 7.3445 10.7921H9.60458C8.75883 11.8936 8.10713 13.1313 7.6775 14.452C6.81223 17.1148 6.81601 19.9838 7.68829 22.6444C8.13537 23.9548 8.76746 25.145 9.58454 26.2087H7.34912C6.45248 25.2126 5.76376 24.0474 5.32338 22.7816C4.85288 21.4277 4.61822 20.0031 4.62963 18.5698" fill="#1F00BB"/>
<path d="M15.4167 24.6667C15.4167 25.0755 15.2543 25.4677 14.9651 25.7568C14.676 26.0459 14.2839 26.2083 13.875 26.2083C13.4661 26.2083 13.074 26.0459 12.7849 25.7568C12.4958 25.4677 12.3333 25.0755 12.3333 24.6667C12.3333 24.2578 12.4958 23.8657 12.7849 23.5765C13.074 23.2874 13.4661 23.125 13.875 23.125C14.2839 23.125 14.676 23.2874 14.9651 23.5765C15.2543 23.8657 15.4167 24.2578 15.4167 24.6667Z" fill="#1F00BB"/>
<path d="M21.9687 10.8117L21.5987 14.1355L24.9704 13.1951L25.2679 15.4614L22.1969 15.6772L24.2119 18.3597L22.1615 19.4543L20.7524 16.6284L19.519 19.4373L17.3915 18.3613L19.3895 15.6788L16.337 15.4444L16.6916 13.1874L19.9908 14.1278L19.6208 10.8009H21.9857" fill="#1F00BB"/>
<path d="M32.375 18.5694C32.375 20.0833 32.1407 21.4924 31.6705 22.7997C31.2318 24.0585 30.5468 25.2172 29.6555 26.2083H27.4155C28.2356 25.1326 28.8736 23.9295 29.304 22.6471C29.7511 21.329 29.9731 19.9646 29.9731 18.5463C29.9731 17.1433 29.7573 15.7759 29.3225 14.4454C28.8941 13.1249 28.2434 11.8871 27.3985 10.7855H29.657C30.5553 11.8134 31.2431 13.0076 31.6813 14.3005C32.1438 15.6263 32.375 17.0478 32.375 18.5617" fill="#1F00BB"/>
</svg>
